<?xml version="1.0" standalone="no"?><!DOCTYPE svg PUBLIC "-//W3C//DTD SVG 1.1//EN" "http://www.w3.org/Graphics/SVG/1.1/DTD/svg11.dtd"><svg t="1744172073747" class="icon" viewBox="0 0 1024 1024" version="1.1" xmlns="http://www.w3.org/2000/svg" p-id="26403" xmlns:xlink="http://www.w3.org/1999/xlink" width="16" height="16"><path d="M921.6 409.6h10.24a30.72 30.72 0 0 1 30.72 30.72v143.36a30.72 30.72 0 0 1-30.72 30.72H921.6a20.48 20.48 0 0 0-20.48 20.48v20.48a122.88 122.88 0 0 1-122.88 122.88H184.32a122.88 122.88 0 0 1-122.88-122.88V368.64a122.88 122.88 0 0 1 122.88-122.88h593.92a122.88 122.88 0 0 1 122.88 122.88v20.48a20.48 20.48 0 0 0 20.48 20.48z m-143.36 187.5968c0-16.44544-7.84384-31.92832-21.0944-41.5744L474.78784 349.9008a26.13248 26.13248 0 0 0-35.4304 24.4736v73.74848a13.0048 13.0048 0 0 1-17.75616 12.22656l-192.512-75.32544a17.87904 17.87904 0 0 0-24.28928 16.71168l-0.02048 6.98368c0 12.14464 5.57056 23.59296 15.09376 31.04768l294.7072 230.54336a26.05056 26.05056 0 0 0 42.0864-20.6848v-96.1536a13.0048 13.0048 0 0 1 18.57536-11.8784l178.7904 72.0896A17.69472 17.69472 0 0 0 778.24 597.1968z" p-id="26404" fill="#ffffff"></path></svg>