<?xml version="1.0" standalone="no"?><!DOCTYPE svg PUBLIC "-//W3C//DTD SVG 1.1//EN" "http://www.w3.org/Graphics/SVG/1.1/DTD/svg11.dtd"><svg t="1744894324106" class="icon" viewBox="0 0 1024 1024" version="1.1" xmlns="http://www.w3.org/2000/svg" p-id="19777" xmlns:xlink="http://www.w3.org/1999/xlink" width="200" height="200"><path d="M618.123636 330.938182H406.341818c-40.494545 0-73.541818 33.047273-73.541818 73.541818v211.781818c0 40.494545 33.047273 73.541818 73.541818 73.541818h211.781818c40.494545 0 73.541818-33.047273 73.541819-73.541818V404.48c0-40.494545-33.047273-73.541818-73.541819-73.541818z m10.705455 285.323636c0 5.585455-4.654545 10.705455-10.705455 10.705455H406.341818c-5.585455 0-10.705455-4.654545-10.705454-10.705455V404.48c0-5.585455 4.654545-10.705455 10.705454-10.705455h211.781818c5.585455 0 10.705455 4.654545 10.705455 10.705455v211.781818z" p-id="19778" fill="#ffffff"></path><path d="M905.774545 472.901818a31.650909 31.650909 0 0 0 0-63.301818h-67.025454V330.938182h67.025454a31.650909 31.650909 0 0 0 0-63.301818h-67.025454V256c0-40.494545-33.047273-73.541818-73.541818-73.541818h-9.774546v-65.163637c0-17.221818-13.963636-31.650909-31.650909-31.650909s-31.185455 13.963636-31.185454 31.650909v65.163637h-78.661819v-65.163637c0-17.221818-13.963636-31.650909-31.185454-31.650909s-31.650909 13.963636-31.650909 31.650909v65.163637h-78.661818v-65.163637c0-17.221818-13.963636-31.650909-31.650909-31.650909s-31.185455 13.963636-31.185455 31.650909v65.163637H330.938182v-65.163637c0-17.221818-13.963636-31.650909-31.185455-31.650909s-31.650909 13.963636-31.650909 31.650909v65.163637h-9.774545c-40.494545 0-73.541818 33.047273-73.541818 73.541818v11.636364H117.76c-17.221818 0-31.185455 13.963636-31.185455 31.650909s13.963636 31.650909 31.185455 31.650909h67.025455V409.6H117.76c-17.221818 0-31.185455 13.963636-31.185455 31.650909s13.963636 31.650909 31.185455 31.650909h67.025455v78.661818H117.76c-17.221818 0-31.185455 13.963636-31.185455 31.650909s13.963636 31.650909 31.185455 31.65091h67.025455v78.661818H117.76c-17.221818 0-31.185455 13.963636-31.185455 31.650909s13.963636 31.650909 31.185455 31.650909h67.025455v7.912727c0 40.494545 33.047273 73.541818 73.541818 73.541818h9.774545v68.887273c0 17.221818 13.963636 31.650909 31.650909 31.650909s31.185455-13.963636 31.185455-31.650909v-68.887273H409.6v68.887273c0 17.221818 13.963636 31.650909 31.185455 31.650909s31.650909-13.963636 31.650909-31.650909v-68.887273h78.661818v68.887273c0 17.221818 13.963636 31.650909 31.650909 31.650909s31.185455-13.963636 31.185454-31.650909v-68.887273h78.661819v68.887273c0 17.221818 13.963636 31.650909 31.185454 31.650909s31.650909-13.963636 31.650909-31.650909v-68.887273h9.774546c40.494545 0 73.541818-33.047273 73.541818-73.541818v-7.912727h67.025454a31.650909 31.650909 0 0 0 0-63.301818h-67.025454v-78.661818h67.025454a31.650909 31.650909 0 0 0 0-63.301819h-67.025454v-78.661818h67.025454z m-129.861818 290.909091c0 5.585455-4.654545 10.705455-10.705454 10.705455H258.792727c-5.585455 0-10.705455-4.654545-10.705454-10.705455V256.930909c0-5.585455 4.654545-10.705455 10.705454-10.705454h506.414546c5.585455 0 10.705455 4.654545 10.705454 10.705454V763.345455z" p-id="19779" fill="#ffffff"></path></svg>