<?xml version="1.0" standalone="no"?><!DOCTYPE svg PUBLIC "-//W3C//DTD SVG 1.1//EN" "http://www.w3.org/Graphics/SVG/1.1/DTD/svg11.dtd"><svg t="1744893561322" class="icon" viewBox="0 0 1024 1024" version="1.1" xmlns="http://www.w3.org/2000/svg" p-id="1491" xmlns:xlink="http://www.w3.org/1999/xlink" width="200" height="200"><path d="M475.735415 761.406439c-7.492683 0-14.985366-4.995122-17.482927-12.487805-9.990244-29.970732-37.463415-47.453659-69.931708-47.453658-29.970732 0-57.443902 19.980488-69.931707 47.453658-2.497561 9.990244-12.487805 12.487805-22.478049 12.487805-34.965854-7.492683-67.434146-22.478049-97.404878-39.960976-7.492683-4.995122-12.487805-14.985366-7.492683-24.975609 14.985366-29.970732 7.492683-62.439024-12.487804-84.917074-22.478049-19.980488-54.946341-27.473171-84.917074-14.985365-7.492683 4.995122-19.980488 0-22.478048-7.492683-17.482927-29.970732-32.468293-62.439024-39.960976-97.404878-2.497561-9.990244 2.497561-17.482927 12.487805-22.478049 29.970732-9.990244 47.453659-37.463415 47.453658-69.931707 0-29.970732-19.980488-57.443902-47.453658-69.931708-9.990244-2.497561-14.985366-12.487805-12.487805-22.478049 7.492683-34.965854 22.478049-67.434146 39.960976-97.404878 4.995122-7.492683 14.985366-12.487805 22.478048-7.492683 29.970732 14.985366 62.439024 7.492683 84.917074-12.487804 22.478049-22.478049 27.473171-54.946341 14.985365-84.917074-4.995122-7.492683 0-19.980488 7.492683-22.478048 29.970732-17.482927 62.439024-32.468293 97.404878-39.960976 9.990244-2.497561 17.482927 2.497561 22.478049 12.487805 9.990244 29.970732 37.463415 47.453659 69.931707 47.453658 29.970732 0 57.443902-19.980488 69.931708-47.453658 2.497561-9.990244 12.487805-12.487805 22.478049-12.487805 34.965854 7.492683 67.434146 22.478049 97.404878 39.960976 7.492683 4.995122 12.487805 14.985366 7.492683 24.975609-14.985366 27.473171-7.492683 59.941463 12.487804 82.419513 22.478049 22.478049 54.946341 27.473171 82.419513 14.985365 7.492683-4.995122 19.980488 0 22.478048 7.492683 17.482927 29.970732 32.468293 62.439024 39.960976 97.404878 2.497561 9.990244-2.497561 17.482927-12.487805 22.478049-29.970732 9.990244-47.453659 37.463415-47.453658 69.931708 0 29.970732 19.980488 57.443902 47.453658 69.931707 9.990244 2.497561 14.985366 12.487805 12.487805 22.478049-7.492683 34.965854-22.478049 67.434146-39.960976 97.404878-4.995122 7.492683-14.985366 12.487805-22.478048 7.492683-27.473171-12.487805-62.439024-7.492683-82.419513 14.985365-22.478049 22.478049-27.473171 54.946341-14.985365 82.419513 4.995122 7.492683 0 19.980488-7.492683 22.478048-29.970732 17.482927-62.439024 32.468293-97.404878 39.960976 0 2.497561-2.497561 2.497561-4.995122 2.497561z m-242.263415-67.434146c19.980488 9.990244 39.960976 17.482927 59.941463 24.975609 19.980488-34.965854 57.443902-57.443902 97.404878-57.443902s77.42439 22.478049 97.404879 57.443902c19.980488-4.995122 39.960976-14.985366 59.941463-24.975609-9.990244-37.463415 0-79.921951 29.970732-109.892683 27.473171-27.473171 69.931707-39.960976 109.892683-29.970732 9.990244-19.980488 17.482927-39.960976 24.975609-59.941463-34.965854-19.980488-57.443902-57.443902-57.443902-97.404878s22.478049-77.42439 57.443902-97.404878c-4.995122-19.980488-14.985366-39.960976-24.975609-59.941464-37.463415 9.990244-79.921951 0-109.892683-29.970732-27.473171-27.473171-39.960976-69.931707-29.970732-109.892683-19.980488-9.990244-39.960976-17.482927-59.941463-24.975609-19.980488 34.965854-57.443902 57.443902-97.404879 57.443902s-77.42439-22.478049-97.404878-57.443902c-19.980488 4.995122-39.960976 14.985366-59.941463 24.975609 9.990244 37.463415 0 79.921951-29.970732 109.892683-27.473171 34.965854-69.931707 44.956098-107.395122 34.965854-9.990244 19.980488-17.482927 39.960976-24.975609 59.941463 34.965854 19.980488 57.443902 57.443902 57.443902 97.404879s-22.478049 77.42439-57.443902 97.404878c7.492683 19.980488 14.985366 39.960976 24.975609 59.941463 37.463415-9.990244 79.921951 0 109.892683 29.970732 27.473171 24.97561 37.463415 67.434146 27.473171 104.897561z m157.346341-179.824391c-62.439024 0-112.390244-49.95122-112.390243-112.390243s49.95122-112.390244 112.390243-112.390244 112.390244 49.95122 112.390244 112.390244-52.44878 112.390244-112.390244 112.390243z m0-187.317073c-42.458537 0-74.926829 32.468293-74.926829 74.92683s32.468293 74.926829 74.926829 74.926829 74.926829-32.468293 74.92683-74.926829-34.965854-74.926829-74.92683-74.92683z" fill="#ffffff" p-id="1492"></path><path d="M840.379317 976.196683c-7.492683 0-14.985366-4.995122-17.482927-12.487805-4.995122-12.487805-17.482927-19.980488-29.970731-19.980488s-24.97561 7.492683-29.970732 19.980488c-2.497561 9.990244-12.487805 12.487805-22.478049 12.487805-19.980488-4.995122-37.463415-12.487805-54.946341-22.478049-7.492683-4.995122-12.487805-14.985366-7.492683-24.97561 4.995122-12.487805 2.497561-27.473171-7.492683-34.965853-9.990244-9.990244-22.478049-12.487805-34.965854-7.492683-7.492683 4.995122-19.980488 0-22.478049-7.492683-9.990244-17.482927-17.482927-34.965854-22.478048-54.946342-2.497561-9.990244 2.497561-17.482927 12.487804-22.478048 12.487805-4.995122 19.980488-17.482927 19.980488-29.970732s-7.492683-24.97561-19.980488-29.970732c-9.990244-2.497561-12.487805-12.487805-12.487804-22.478049 4.995122-19.980488 12.487805-37.463415 22.478048-54.946341 4.995122-7.492683 14.985366-12.487805 22.478049-7.492683 12.487805 4.995122 27.473171 2.497561 34.965854-7.492683 9.990244-9.990244 12.487805-22.478049 7.492683-34.965854-4.995122-7.492683 0-19.980488 7.492683-22.478048 17.482927-9.990244 34.965854-17.482927 54.946341-22.478049 9.990244-2.497561 17.482927 2.497561 22.478049 12.487805 4.995122 12.487805 17.482927 19.980488 29.970732 19.980488s24.97561-7.492683 29.970731-19.980488c2.497561-9.990244 12.487805-12.487805 22.478049-12.487805 19.980488 4.995122 37.463415 12.487805 54.946341 22.478049 7.492683 4.995122 12.487805 14.985366 7.492683 24.975609-4.995122 12.487805-2.497561 27.473171 7.492683 34.965854 9.990244 9.990244 22.478049 12.487805 34.965854 7.492683 7.492683-4.995122 19.980488 0 22.478049 7.492683 9.990244 17.482927 17.482927 34.965854 22.478049 54.946341 2.497561 9.990244-2.497561 19.980488-12.487805 22.478049-12.487805 4.995122-19.980488 17.482927-19.980488 29.970732s7.492683 24.97561 19.980488 29.970732c9.990244 2.497561 14.985366 12.487805 12.487805 22.478048-4.995122 19.980488-12.487805 37.463415-22.478049 54.946342-4.995122 7.492683-14.985366 12.487805-22.478049 7.492683-12.487805-4.995122-27.473171-2.497561-34.965854 7.492683-9.990244 9.990244-12.487805 22.478049-7.492683 34.965853 4.995122 7.492683 0 19.980488-7.492683 22.478049-17.482927 9.990244-34.965854 17.482927-54.946341 22.478049h-4.995122z m-122.380488-47.453659c4.995122 2.497561 12.487805 4.995122 19.980488 7.492683 12.487805-17.482927 32.468293-29.970732 57.443903-29.970731s44.956098 9.990244 57.443902 29.970731c7.492683-2.497561 12.487805-4.995122 19.980488-7.492683-4.995122-22.478049 2.497561-44.956098 19.980488-59.941463 14.985366-14.985366 39.960976-22.478049 59.941463-19.980488 2.497561-4.995122 4.995122-12.487805 7.492683-19.980488-17.482927-12.487805-29.970732-32.468293-29.970732-57.443902s9.990244-44.956098 29.970732-57.443903c-2.497561-7.492683-4.995122-12.487805-7.492683-19.980487-22.478049 2.497561-44.956098-2.497561-59.941463-19.980488-14.985366-14.985366-22.478049-39.960976-19.980488-59.941464-4.995122-2.497561-12.487805-4.995122-19.980488-7.492682-12.487805 17.482927-32.468293 29.970732-57.443902 29.970731-22.478049 0-44.956098-9.990244-57.443903-29.970731-7.492683 2.497561-12.487805 4.995122-19.980488 7.492682 4.995122 22.478049-2.497561 44.956098-19.980488 59.941464-17.482927 17.482927-39.960976 22.478049-59.941463 19.980488-2.497561 4.995122-4.995122 12.487805-7.492683 19.980487 17.482927 12.487805 29.970732 32.468293 29.970732 57.443903 0 22.478049-9.990244 44.956098-29.970732 57.443902 2.497561 7.492683 4.995122 12.487805 7.492683 19.980488 22.478049-4.995122 44.956098 2.497561 59.941463 19.980488 14.985366 14.985366 22.478049 37.463415 19.980488 59.941463z m74.92683-87.414634c-37.463415 0-69.931707-32.468293-69.931708-69.931707s32.468293-69.931707 69.931708-69.931707c37.463415 0 69.931707 32.468293 69.931707 69.931707s-32.468293 69.931707-69.931707 69.931707z m0-99.902439c-17.482927 0-32.468293 14.985366-32.468293 32.468293s14.985366 32.468293 32.468293 32.468293c17.482927 0 32.468293-14.985366 32.468292-32.468293s-14.985366-32.468293-32.468292-32.468293z" fill="#ffffff" p-id="1493"></path></svg>