<?xml version="1.0" standalone="no"?><!DOCTYPE svg PUBLIC "-//W3C//DTD SVG 1.1//EN" "http://www.w3.org/Graphics/SVG/1.1/DTD/svg11.dtd"><svg t="1747307108754" class="icon" viewBox="0 0 1024 1024" version="1.1" xmlns="http://www.w3.org/2000/svg" p-id="14891" width="16" height="16" xmlns:xlink="http://www.w3.org/1999/xlink"><path d="M512 68.266667a477.866667 477.866667 0 1 0 477.866667 477.866666A477.866667 477.866667 0 0 0 512 68.266667z m0 914.773333a436.906667 436.906667 0 1 1 436.906667-436.906667 436.906667 436.906667 0 0 1-436.906667 436.906667z" p-id="14892" fill="#1296db"></path><path d="M621.226667 75.093333A75.093333 75.093333 0 1 1 546.133333 0 75.093333 75.093333 0 0 1 621.226667 75.093333zM184.32 334.506667A75.093333 75.093333 0 1 1 109.226667 259.413333a75.093333 75.093333 0 0 1 75.093333 75.093334zM839.68 921.6a75.093333 75.093333 0 1 1-75.093333-75.093333 75.093333 75.093333 0 0 1 75.093333 75.093333z" p-id="14893" fill="#1296db"></path></svg>