<?xml version="1.0" standalone="no"?><!DOCTYPE svg PUBLIC "-//W3C//DTD SVG 1.1//EN" "http://www.w3.org/Graphics/SVG/1.1/DTD/svg11.dtd"><svg t="1761054439263" class="icon" viewBox="0 0 1024 1024" version="1.1" xmlns="http://www.w3.org/2000/svg" p-id="19251" xmlns:xlink="http://www.w3.org/1999/xlink" width="16" height="16"><path d="M889.9 503.2c-3.7-157.7-106.6-301-262.9-350.8l4.9-18.2c2.6-9.6-3.1-19.5-12.7-22-9.6-2.6-19.5 3.1-22 12.7l-4.9 18.2c-160.3-35-321.1 37.7-403.1 172.3-60.5 14.6-101.5 41.7-111.8 80.1C67 434 88.9 478 134.1 521c3.8 157.6 106.7 300.7 262.9 350.6l-4.9 18.2c-2.6 9.6 3.1 19.5 12.7 22 9.6 2.6 19.5-3.1 22-12.7l4.9-18.2c160.2 34.9 320.9-37.6 403-172.2 60.7-14.6 101.6-41.8 111.9-80.3C957 590 935 546.1 889.9 503.2zM617.7 187.1c129.2 42 218 155.2 233.8 283.8-52.7-39.3-123.9-76.4-206.9-106L611 490.2c49.5 22.9 80 49.1 74.8 68.4-7.2 27-81.8 30.9-170.4 10l102.3-381.5z m-34.8-9.3L480.7 559.2c-87.2-26.2-149.8-66.8-142.6-93.8 5.2-19.3 44.7-26.7 99-21.8l33.6-125.3c-86.6-15.8-166.8-19.3-232.2-11.6C316.6 203.2 450 149.6 582.9 177.8zM406.3 836.9c-129.2-42-217.9-155.1-233.8-283.7C239.3 603 335.9 649.1 448 681l-41.7 155.9z m34.8 9.3l41.8-155.8c113.1 28.4 219.8 36.8 302.5 27.1-78 103.3-211.4 156.9-344.3 128.7z" fill="#ffffff" p-id="19252"></path></svg>