<?xml version="1.0" standalone="no"?><!DOCTYPE svg PUBLIC "-//W3C//DTD SVG 1.1//EN" "http://www.w3.org/Graphics/SVG/1.1/DTD/svg11.dtd"><svg t="1744172451087" class="icon" viewBox="0 0 1024 1024" version="1.1" xmlns="http://www.w3.org/2000/svg" p-id="47672" xmlns:xlink="http://www.w3.org/1999/xlink" width="16" height="16"><path d="M174.421333 144.597333c241.664-8.448 392.533333 16.512 457.216 81.066667 73.386667 73.258667 34.773333 178.389333-97.066666 309.546667l-9.472 9.514666c-101.717333 103.765333-125.098667 171.776-87.296 209.493334 47.658667 47.488 186.026667 70.485333 410.581333 62.848a32 32 0 1 1 2.176 63.957333c-242.005333 8.277333-393.130667-16.853333-457.941333-81.493333-73.557333-73.386667-34.986667-178.56 96.853333-309.717334 109.653333-109.098667 135.765333-180.096 96.981333-218.88-47.488-47.36-185.6-70.229333-409.770666-62.378666a32 32 0 1 1-2.261334-63.957334z" p-id="47673" fill="#ffffff"></path></svg>