<?xml version="1.0" standalone="no"?><!DOCTYPE svg PUBLIC "-//W3C//DTD SVG 1.1//EN" "http://www.w3.org/Graphics/SVG/1.1/DTD/svg11.dtd"><svg t="1747032378413" class="icon" viewBox="0 0 1024 1024" version="1.1" xmlns="http://www.w3.org/2000/svg" p-id="30963" xmlns:xlink="http://www.w3.org/1999/xlink" width="16" height="16"><path d="M186.197333 802.133333h651.605334c18.0224 0 32.597333 15.291733 32.597333 34.133334 0 17.5104-12.561067 31.9488-28.7744 33.8944l-3.822933 0.238933H186.197333c-18.0224 0-32.597333-15.291733-32.597333-34.133333 0-17.5104 12.561067-31.9488 28.7744-33.8944l3.822933-0.238934h651.605334-651.605334z m562.756267-648.533333c67.072 0 121.4464 56.968533 121.4464 127.214933v325.8368c0 70.2464-54.3744 127.214933-121.4464 127.214934H275.0464c-67.072 0-121.4464-56.968533-121.4464-127.214934V280.814933C153.6 210.602667 207.9744 153.6 275.0464 153.6h473.9072z m0 68.266667H275.0464c-31.061333 0-56.285867 26.385067-56.285867 58.948266v325.8368c0 32.5632 25.1904 58.948267 56.285867 58.948267h473.9072c31.061333 0 56.285867-26.385067 56.285867-58.948267V280.814933c0-32.5632-25.1904-58.948267-56.285867-58.948266z" fill="#ffffff" p-id="30964"></path></svg>