<?xml version="1.0" standalone="no"?><!DOCTYPE svg PUBLIC "-//W3C//DTD SVG 1.1//EN" "http://www.w3.org/Graphics/SVG/1.1/DTD/svg11.dtd"><svg t="1744894243316" class="icon" viewBox="0 0 1025 1024" version="1.1" xmlns="http://www.w3.org/2000/svg" p-id="15773" xmlns:xlink="http://www.w3.org/1999/xlink" width="200.1953125" height="200"><path d="M647.565101 571.496963h-143.187083a37.920308 37.920308 0 0 1-37.920308-37.920308v-193.772774a37.920308 37.920308 0 0 1 75.840616 0v155.852466h105.266775a37.920308 37.920308 0 0 1 0 75.840616z" fill="#ffffff" p-id="15774"></path><path d="M33.521552 533.538735a471.38735 471.38735 0 1 1 471.501111 471.501111A471.842394 471.842394 0 0 1 33.521552 533.538735z m75.840617 0A395.622574 395.622574 0 1 0 505.060584 138.029921 396.229299 396.229299 0 0 0 109.324248 533.538735z m822.415642-343.595912a194.341579 194.341579 0 0 0-109.51385-97.455192 37.920308 37.920308 0 1 1 25.975411-71.100577 271.168123 271.168123 0 0 1 151.681232 134.882536 37.920308 37.920308 0 0 1-17.064138 50.585691 37.920308 37.920308 0 0 1-50.964894-16.874537z m-889.496667 16.874537a37.920308 37.920308 0 0 1-17.064139-50.585691 270.447637 270.447637 0 0 1 151.681232-134.882536 37.920308 37.920308 0 0 1 25.975411 71.100578 194.341579 194.341579 0 0 0-109.513849 97.455192 37.920308 37.920308 0 0 1-50.964895 16.874537z" fill="#ffffff" p-id="15775"></path></svg>